{"title":"Hardcore.Henry.2016.BRRip.480p.x264.AAC-VYTO [P2PDL]","uid":15302910,"size":431208960,"categoryP":"video","categoryS":"movies","magnet":"?xt=urn:btih:f2be1f300cf40e0c00043c2deac05e55e1829d3e&amp;dn=Hardcore.Henry.2016.BRRip.480p.x264.AAC-VYTO+%5BP2PDL%5D&amp;tr=udp%3A%2F%2Ftracker.leechers-paradise.org%3A6969&amp;tr=udp%3A%2F%2Fzer0day.ch%3A1337&amp;tr=udp%3A%2F%2Fopen.demonii.com%3A1337&amp;tr=udp%3A%2F%2Ftracker.coppersurfer.tk%3A6969&amp;tr=udp%3A%2F%2Fexodus.desync.com%3A6969","seeders":5,"leechers":6,"uploader":"VYTOP2PDL","files":6,"time":1468504123,"description":"Hardcore.Henry.2016.BRRip.480p.x264.AAC-VYTO\r\n\r\n\r\nGenre: Action, Adventure, Sci-Fi  \nhttp://www.imdb.com/title/tt3072482/\r\n\r\n\r\nFormat                      : MPEG-4\r\nFile size                   : 402 MiB\r\nDuration                    : 1h 36mn\r\nOverall bit rate            : 580 Kbps\r\n\r\nVideo\r\nFormat                      : AVC\r\nDuration                    : 1h 36mn\r\nBit rate                    : 537 Kbps\r\nMaximum bit rate            : 2 874 Kbps\r\nWidth                       : 720 pixels\r\nHeight                      : 384 pixels\r\nDisplay aspect ratio        : 1.85:1\r\nFrame rate mode             : Constant\r\nFrame rate                  : 23.976 fps\r\nStream size                 : 372 MiB (93%)\r\nWriting library             : x264 core 148 r2705 3f5ed56\r\n\r\nAudio\r\nFormat                      : AAC\r\nBit rate                    : 39.9 Kbps\r\nMaximum bit rate            : 62.7 Kbps\r\nChannel(s)                  : 2 channels\r\nChannel positions           : Front: L R\r\nSampling rate               : 44.1 KHz / 22.05 KHz\r\nFrame rate                  : 21.533 fps\r\nStream size                 : 27.6 MiB (7%)\r\nLanguage                    : English\r\n\r\nSubtitle                    : Yes (English)\r\n\r\nScreen Shots: \r\n \nhttps://ititli.com/XEk \nhttps://ititli.com/XEo \nhttps://ititli.com/XEG \nhttps://ititli.com/XEH \nhttps://ititli.com/XEM \nhttps://ititli.com/XEU \nhttps://ititli.com/XEh \nhttps://ititli.com/XEs \nhttps://ititli.com/XEY \nhttps://ititli.com/XE4 \nhttps://ititli.com/XEK\r\n\r\n----------------------------------------------------------------------------------------------------\r\n\r\n\r\nEncoder Notes: Looking For Early Access To Anything You Can Provide WEBDL, DVDScr, DVDR, BluRay,\r\nDirect Audio, Music Releases and Seedboxes. If You Got anything to offer please contact us.\r\n\r\nSupport us by donating BC - 1FgwdzPsd1y25Gea8wP1qni35uGCtmkRCD\r\n\r\n\r\nFind us and join us!","torrent":{"xt":"urn:btih:f2be1f300cf40e0c00043c2deac05e55e1829d3e","amp;dn":"Hardcore.Henry.2016.BRRip.480p.x264.AAC-VYTO+%5BP2PDL%5D","amp;tr":["udp%3A%2F%2Ftracker.leechers-paradise.org%3A6969","udp%3A%2F%2Fzer0day.ch%3A1337","udp%3A%2F%2Fopen.demonii.com%3A1337","udp%3A%2F%2Ftracker.coppersurfer.tk%3A6969","udp%3A%2F%2Fexodus.desync.com%3A6969"],"infoHash":"f2be1f300cf40e0c00043c2deac05e55e1829d3e","infoHashBuffer":{"type":"Buffer","data":[242,190,31,48,12,244,14,12,0,4,60,45,234,192,94,85,225,130,157,62]},"announce":[],"urlList":[]}}